# xmcd
#
# Track frame offsets:
#	150
#	13947
#	26905
#	37972
#	50790
#	62635
#	72815
#	84325
#	94682
#	108637
#	119670
#	130552
#	140765
#	154110
#	164375
#	175955
#	188705
#	201667
#	212692
#	223987
#	236407
#	248737
#	259087
#	270745
#	280710
#	293210
#	305180
#	316715
#	326135
#	334472
#	346435
#	353197
#
# Disc length: 4789
#
# Revision: 1
# Processed by: cddbd v1.5.1PL0 Copyright (c) Steve Scherf et al.
# Submitted via: EasyCDDAExtractor 4.6.9.1
# Normalized: r0:DSETVAR1,TDELIM( - )
#
DISCID=0012b320
DTITLE=Various Artist - The Sarg Anthology
DYEAR=1958
DGENRE=
TTITLE0=Neal Merritt - There's An Hour To Every Minute
TTITLE1=Neal Merritt - Korean Love Song
TTITLE2=Neal Merritt - Dont't Go Tellin' Lies On Me
TTITLE3=Neal Merritt - (Little) Coquette
TTITLE4=Herby Shozel and The Longhorn Playboys - You Ain't Foolin' Me
TTITLE5=Herby Shozel and The Longhorn Playboys - I Suppose
TTITLE6=Neal Merritt and The Longhorn Playboys - I Got Fooled
TTITLE7=Henry Bennetsen and The Southernairs - Six More Days
TTITLE8=Arnold Parker and The Southernairs - Red Lips, Kiss My Blues Away
TTITLE9=Herby Shozel and The Longhorn Playboys - You Better Belive It
TTITLE10=Herby Shozel and The Longhorn Playboys - I Traded A Broken Heart
TTITLE11=Dave Isbell and The Mission City Playboys - Satisfied Or Sorry
TTITLE12=Dave Isbell and The Mission City Playboys - No Longer Afraid
TTITLE13=Larry Nolen and The Bandits - I Need You Now
TTITLE14=Larry Nolen and The Bandits - The Bandit
TTITLE15=Neal Merritt and The Bandits - There's An Hour To Every Minute
TTITLE16=Neal Merritt and The Longhorn Playboys - Sweeping Up The Ashes (Of Our Love)
TTITLE17=Dave Isbell and The Mission City Playboys - Let's Do It Up Brown
TTITLE18=Little Doug and The Bandits - Rollin', Rollin'
TTITLE19=Little Doug and The Bandits - A Real Americdan Joe
TTITLE20=Larry Nolen and The Bandits - Hillbilly Love Affair
TTITLE21=Herby Shozel and The Longhorn Playboys - You're Gonna Pay
TTITLE22=Herby Shozel and The Longhorn Playboys - I Can't Belive It's True
TTITLE23=Larry Nolen and The Bandits - High and Dry
TTITLE24=Neal Merritt and The Bandits - I Gave You A Ring
TTITLE25=Jack Hill - That's All I Need
TTITLE26=Jack Kill - Don't Deny My Love
TTITLE27=Eddy Dugosh and The AH HA Playboys - Bad Luck Come My Way
TTITLE28=Eddy Dugosh and The AH HA Playboys - There Is No Need
TTITLE29=Glen Paul and The Sunset Wranglers - I'm Broke
TTITLE30=Willie Nelson - When I've Sang My Last Hillbilly Song
TTITLE31=Willie Nelson - The Storm Has Just Begun
EXTD=
EXTT0=
EXTT1=
EXTT2=
EXTT3=
EXTT4=
EXTT5=
EXTT6=
EXTT7=
EXTT8=
EXTT9=
EXTT10=
EXTT11=
EXTT12=
EXTT13=
EXTT14=
EXTT15=
EXTT16=
EXTT17=
EXTT18=
EXTT19=
EXTT20=
EXTT21=
EXTT22=
EXTT23=
EXTT24=
EXTT25=
EXTT26=
EXTT27=
EXTT28=
EXTT29=
EXTT30=
EXTT31=
PLAYORDER=
